<svg width="24" height="24" viewBox="0 0 24 24" fill="none" xmlns="http://www.w3.org/2000/svg">
<path d="M9.6393 7.40153C10.4247 6.20435 12.2901 6.87052 12.1379 8.29381L11.8321 11.1527C11.7777 11.6614 12.0128 12.1576 12.4411 12.438L14.848 14.0141C16.0463 14.7987 15.3795 16.6624 13.9549 16.5103L11.0933 16.2049C10.5842 16.1505 10.0875 16.3854 9.80687 16.8132L8.22932 19.218C7.44396 20.4151 5.57856 19.749 5.73077 18.3257L6.0365 15.4668C6.09089 14.9581 5.85577 14.4619 5.42755 14.1815L3.02058 12.6054C1.82228 11.8208 2.48907 9.95713 3.91369 10.1092L6.77529 10.4146C7.28438 10.469 7.7811 10.2341 8.06176 9.80626L9.6393 7.40153Z" fill="url(#paint0_radial_653_6031)"/>
<path d="M20.7466 5.29704C21.5198 5.0479 22.1065 6.00636 21.5325 6.58082L20.3795 7.73473C20.1744 7.94002 20.1015 8.24294 20.1908 8.51926L20.6928 10.0725C20.9427 10.8457 19.9845 11.4315 19.4094 10.857L18.2543 9.70317C18.0487 9.49789 17.7457 9.42478 17.4694 9.51381L15.9163 10.0143C15.1432 10.2634 14.5564 9.30493 15.1305 8.73047L16.2835 7.57656C16.4886 7.37127 16.5615 7.06836 16.4722 6.79203L15.9702 5.23883C15.7203 4.46558 16.6784 3.87984 17.2535 4.45427L18.4087 5.60812C18.6142 5.8134 18.9173 5.88651 19.1936 5.79748L20.7466 5.29704Z" fill="url(#paint1_radial_653_6031)"/>
<defs>
<radialGradient id="paint0_radial_653_6031" cx="0" cy="0" r="1" gradientUnits="userSpaceOnUse" gradientTransform="translate(-1.14086 9.64314) rotate(20.001) scale(19.9241 14.305)">
<stop stop-color="#1AFFB6"/>
<stop offset="0.639914" stop-color="#1A66FF"/>
<stop offset="1" stop-color="#BD62FF"/>
</radialGradient>
<radialGradient id="paint1_radial_653_6031" cx="0" cy="0" r="1" gradientUnits="userSpaceOnUse" gradientTransform="translate(20.0492 -5.37531) rotate(99.2726) scale(21.5716 15.4879)">
<stop stop-color="#1AFFB6"/>
<stop offset="0.639914" stop-color="#1A66FF"/>
<stop offset="1" stop-color="#BD62FF"/>
</radialGradient>
</defs>
</svg>
