<svg width="16" height="16" viewBox="0 0 16 16" fill="none" xmlns="http://www.w3.org/2000/svg">
<path d="M8.64792 2.56991C9.36973 1.46962 11.0842 2.08188 10.9443 3.38999L10.6633 6.01755C10.6133 6.48501 10.8294 6.9411 11.2229 7.19881L13.4351 8.64733C14.5365 9.36846 13.9236 11.0813 12.6143 10.9415L9.98429 10.6608C9.51639 10.6109 9.05987 10.8268 8.80193 11.22L7.35205 13.4301C6.63024 14.5304 4.9158 13.9181 5.05569 12.61L5.33668 9.98245C5.38668 9.51499 5.17058 9.0589 4.77702 8.80119L2.56483 7.35267C1.46351 6.63154 2.07634 4.9187 3.38567 5.05846L6.01568 5.33919C6.48358 5.38913 6.9401 5.17324 7.19804 4.78004L8.64792 2.56991Z" fill="url(#paint0_radial_613_3474)"/>
<defs>
<radialGradient id="paint0_radial_613_3474" cx="0" cy="0" r="1" gradientUnits="userSpaceOnUse" gradientTransform="translate(-1.25983 4.63012) rotate(20.001) scale(18.3117 13.1473)">
<stop stop-color="#1AFFB6"/>
<stop offset="0.639914" stop-color="#1A66FF"/>
<stop offset="1" stop-color="#BD62FF"/>
</radialGradient>
</defs>
</svg>
